# xmcd CD database file
#
# Track frame offsets:
#	150
#	30380
#	61312
#	93662
#	107675
#	115200
#	120082
#	125042
#	129650
#	137570
#	152945
#	176587
#	203095
#
# Disc length: 2915 seconds
#
# Revision: 0
# Processed by: cddbd v1.5.1PL0 Copyright (c) Steve Scherf et al.
# Submitted via: CDex 1.51
#
DISCID=b00b610d
DTITLE=森本浩正 - カオス・ゾーン
DYEAR=1990
DGENRE=Other
TTITLE0=Fantastic Chaos Part-?
TTITLE1=Li and Yorke
TTITLE2=Fractal
TTITLE3=Random Access
TTITLE4=Gumowski-Mira's Map Part-?
TTITLE5=Gumowski-Mira's Map Part-?
TTITLE6=Gumowski-Mira's Map Part-?
TTITLE7=Gumowski-Mira's Map Part-?
TTITLE8=Gumowski-Mira's Map Part-?
TTITLE9=Chaos Zone
TTITLE10=Entropy
TTITLE11=Double Scroll
TTITLE12=Fantastic Chaos Part-?
EXTD=YEAR: 1990
EXTT0=
EXTT1=
EXTT2=
EXTT3=
EXTT4=
EXTT5=
EXTT6=
EXTT7=
EXTT8=
EXTT9=
EXTT10=
EXTT11=
EXTT12=
PLAYORDER=
